<svg id="SvgjsSvg1096" width="288" height="288" xmlns="http://www.w3.org/2000/svg" version="1.1" xmlns:xlink="http://www.w3.org/1999/xlink" xmlns:svgjs="http://svgjs.com/svgjs"><g id="SvgjsG1102" transform="matrix(0.7916,0,0,0.7916,30.009600000000006,30.009600000000006)" fill="#f3bbed"><circle id="SvgjsCircle1103" r="144" cx="144" cy="144"></circle><rect id="SvgjsRect1104" width="164" height="164" x="124" y="124" rx="20" ry="20"></rect></g><defs id="SvgjsDefs1097"></defs><g id="SvgjsG1098" transform="matrix(0.4652,0,0,0.4652,77.0112,77.0112040802002)"><svg xmlns="http://www.w3.org/2000/svg" viewBox="0 0 16 16" width="288" height="288"><path d="M14.5 2h-13A1.5 1.5 0 0 0 0 3.5v9A1.5 1.5 0 0 0 1.5 14h13a1.5 1.5 0 0 0 1.5-1.5v-9A1.5 1.5 0 0 0 14.5 2zm-1.766 1L8 6.738 3.266 3h9.468zM2 13V4.646l6 4.615 6-4.616V13H2z" fill="#000000" class="color000 svgShape"></path></svg></g></svg>